<svg width="34" height="34" viewBox="0 0 34 34" fill="none" xmlns="http://www.w3.org/2000/svg">
<rect width="34" height="34" rx="6.55738" fill="#37AEE2"/>
<path d="M13.3531 25.6626C12.6923 25.6626 12.7524 25.4223 12.5722 24.8216L10.6499 18.5142L25.3672 9.86401" fill="#C8DAEA"/>
<path d="M13.3535 25.6624C13.774 25.6624 14.0143 25.4221 14.3146 25.1818L17.0178 22.5988L13.6539 20.5564" fill="#A9C9DD"/>
<path d="M13.6539 20.5566L21.7634 26.5036C22.6044 27.0443 23.3252 26.7439 23.5655 25.6626L26.8694 10.1644C27.1698 8.84285 26.3288 8.24214 25.4277 8.66264L6.14503 16.1114C4.88354 16.592 4.88354 17.3729 5.90475 17.6732L10.8906 19.2351L22.304 11.9665C22.8447 11.6662 23.3252 11.7863 22.9648 12.2068" fill="#F6FBFE"/>
</svg>
