<svg width="34" height="34" viewBox="0 0 34 34" fill="none" xmlns="http://www.w3.org/2000/svg">
<rect width="34" height="34" rx="6.55738" fill="#6F3FAA"/>
<path d="M29.5379 10.1672L29.5302 10.1359C28.8969 7.57571 26.0419 4.82864 23.42 4.25713L23.3904 4.25102C19.1496 3.44204 14.8497 3.44204 10.6098 4.25102L10.5794 4.25713C7.9584 4.82864 5.10328 7.5759 4.46919 10.1359L4.46215 10.1672C3.67928 13.7424 3.67928 17.3682 4.46215 20.9435L4.46919 20.9748C5.07634 23.4256 7.71871 26.0465 10.2428 26.7673V29.6251C10.2428 30.6595 11.5033 31.1675 12.22 30.421L15.1155 27.4113C15.7436 27.4464 16.3719 27.466 17.0001 27.466C19.1347 27.466 21.2704 27.2641 23.3903 26.8597L23.4199 26.8536C26.0418 26.2821 28.8968 23.5348 29.5301 20.9748L29.5378 20.9436C30.3207 17.3682 30.3207 13.7426 29.5379 10.1672ZM27.2465 20.4251C26.8236 22.0954 24.6559 24.1718 22.9335 24.5554C20.6787 24.9843 18.4059 25.1675 16.1355 25.1046C16.0903 25.1033 16.0469 25.1209 16.0155 25.1533C15.6932 25.484 13.9014 27.3236 13.9014 27.3236L11.6528 29.6315C11.4883 29.8029 11.1995 29.6862 11.1995 29.4497V24.7154C11.1995 24.6372 11.1437 24.5708 11.0668 24.5556C11.0664 24.5554 11.066 24.5554 11.0655 24.5553C9.34314 24.1717 7.17618 22.0953 6.75262 20.425C6.04798 17.1934 6.04798 13.9173 6.75262 10.6856C7.17618 9.01535 9.34314 6.93894 11.0655 6.55528C15.0036 5.8063 18.9964 5.8063 22.9336 6.55528C24.6569 6.93894 26.8237 9.01535 27.2465 10.6856C27.9519 13.9174 27.9519 17.1934 27.2465 20.4251Z" fill="white"/>
<path d="M20.7467 22.6102C20.4819 22.5297 20.2296 22.4757 19.9951 22.3786C17.5666 21.371 15.3317 20.0712 13.5615 18.0787C12.5547 16.9457 11.7668 15.6665 11.1007 14.3128C10.7849 13.6709 10.5187 13.0038 10.2473 12.3409C9.99995 11.7366 10.3643 11.1122 10.748 10.6567C11.1081 10.2292 11.5714 9.90223 12.0732 9.66106C12.4648 9.47293 12.8511 9.58144 13.1372 9.91334C13.7554 10.631 14.3235 11.3854 14.7833 12.2173C15.0661 12.729 14.9885 13.3545 14.4759 13.7027C14.3513 13.7873 14.2378 13.8868 14.1218 13.9823C14.0199 14.0661 13.9242 14.1507 13.8544 14.2641C13.7269 14.4716 13.7208 14.7165 13.8028 14.9421C14.4349 16.679 15.5002 18.0298 17.2486 18.7574C17.5284 18.8737 17.8093 19.0092 18.1317 18.9717C18.6714 18.9087 18.8462 18.3165 19.2245 18.0072C19.5942 17.7049 20.0667 17.7009 20.4649 17.9529C20.8633 18.2051 21.2493 18.4756 21.6332 18.7492C22.01 19.0177 22.385 19.2802 22.7325 19.5863C23.0667 19.8807 23.1818 20.2667 22.9936 20.666C22.6492 21.3975 22.1478 22.0059 21.4249 22.3943C21.2207 22.5038 20.9769 22.5392 20.7467 22.6102C20.9769 22.5392 20.4819 22.5297 20.7467 22.6102Z" fill="white"/>
<path d="M17.0065 8.82474C20.1829 8.91381 22.7919 11.0218 23.351 14.1622C23.4463 14.6973 23.4802 15.2442 23.5226 15.7874C23.5405 16.0158 23.411 16.2328 23.1646 16.2359C22.91 16.2389 22.7955 16.0258 22.7788 15.7976C22.7461 15.3456 22.7234 14.8915 22.6611 14.4434C22.3324 12.0771 20.4456 10.1195 18.0903 9.69945C17.7358 9.63622 17.3732 9.61965 17.0141 9.58197C16.7872 9.55817 16.49 9.54447 16.4397 9.26228C16.3976 9.02574 16.5972 8.83743 16.8225 8.8253C16.8835 8.82169 16.9451 8.82456 17.0065 8.82474C20.1831 8.91381 16.9451 8.82456 17.0065 8.82474Z" fill="white"/>
<path d="M21.834 15.0824C21.8288 15.1221 21.8261 15.2153 21.8027 15.3031C21.7185 15.6219 21.2349 15.6618 21.1237 15.3401C21.0906 15.2447 21.0857 15.136 21.0855 15.0332C21.0844 14.3605 20.9382 13.6884 20.5989 13.103C20.2502 12.5013 19.7173 11.9957 19.0924 11.6895C18.7145 11.5046 18.3059 11.3895 17.8917 11.3211C17.7107 11.2911 17.5278 11.273 17.3459 11.2477C17.1254 11.217 17.0077 11.0766 17.0182 10.8594C17.028 10.6559 17.1767 10.5093 17.3986 10.522C18.1274 10.5633 18.8316 10.7211 19.4798 11.0642C20.7976 11.7621 21.5505 12.8637 21.7703 14.3347C21.7802 14.4014 21.7961 14.4674 21.8012 14.5342C21.8136 14.6992 21.8215 14.8644 21.834 15.0824C21.8288 15.1219 21.8215 14.8644 21.834 15.0824Z" fill="white"/>
<path d="M19.8582 15.0057C19.5925 15.0105 19.4503 14.8633 19.4228 14.6198C19.4038 14.45 19.3886 14.2778 19.3481 14.1124C19.2683 13.7868 19.0952 13.4852 18.8214 13.2857C18.6921 13.1915 18.5456 13.1229 18.3922 13.0785C18.1973 13.0221 17.9947 13.0377 17.8004 12.9901C17.5892 12.9383 17.4724 12.7672 17.5056 12.5692C17.5358 12.3889 17.7111 12.2481 17.9082 12.2625C19.1398 12.3514 20.0199 12.988 20.1456 14.4379C20.1545 14.5402 20.1649 14.6482 20.1422 14.7463C20.1032 14.9136 19.9791 14.9975 19.8582 15.0057C19.9791 14.9975 19.5924 15.0104 19.8582 15.0057Z" fill="white"/>
</svg>
